<?xml version="1.0" standalone="no"?>
<!DOCTYPE svg PUBLIC "-//W3C//DTD SVG 20010904//EN"
 "http://www.w3.org/TR/2001/REC-SVG-20010904/DTD/svg10.dtd">
<svg version="1.0" xmlns="http://www.w3.org/2000/svg"
 width="1024.000000pt" height="1024.000000pt" viewBox="0 0 1024.000000 1024.000000"
 preserveAspectRatio="xMidYMid meet">

<g transform="translate(0.000000,1024.000000) scale(0.100000,-0.100000)"
fill="#000000" stroke="none">
<path d="M0 5120 l0 -5120 5120 0 5120 0 0 5120 0 5120 -5120 0 -5120 0 0
-5120z m5220 2835 c18 -54 5 -100 -42 -151 -23 -24 -39 -46 -37 -48 2 -2 29
-19 59 -38 30 -19 75 -55 99 -80 l43 -46 53 23 c133 59 276 53 408 -18 96 -50
195 -162 236 -264 12 -28 15 -30 42 -23 16 5 64 12 107 15 147 13 289 -41 387
-146 67 -73 96 -145 103 -254 8 -145 -57 -290 -198 -439 -42 -45 -85 -94 -95
-109 -9 -15 -22 -27 -28 -27 -17 0 -108 61 -154 102 -36 32 -50 38 -87 38 -74
0 -203 35 -331 90 -66 29 -142 61 -170 73 -27 11 -66 32 -85 46 -31 23 -44 26
-120 26 -73 0 -93 4 -141 28 -31 15 -76 49 -100 75 l-44 47 -45 -46 c-25 -25
-72 -58 -105 -75 -52 -25 -71 -29 -147 -29 -66 -1 -91 -5 -105 -17 -23 -21
-164 -86 -310 -143 -111 -43 -220 -71 -298 -76 -30 -2 -50 -12 -80 -39 -22
-21 -66 -54 -97 -73 l-57 -36 -28 37 c-15 20 -62 74 -104 119 -131 141 -195
291 -187 438 10 189 130 326 333 379 63 16 223 15 266 -2 26 -10 28 -8 58 53
114 231 372 342 603 261 l78 -27 32 36 c17 20 57 53 87 73 31 20 60 40 66 44
6 4 -3 21 -21 40 -36 38 -64 88 -64 115 1 31 37 99 76 143 l39 42 46 -51 c26
-28 53 -67 59 -86z m180 -1385 c132 -14 332 -54 430 -87 105 -34 285 -122 385
-187 l85 -56 -1 -487 c-1 -625 -11 -698 -120 -916 -57 -113 -90 -158 -189
-261 -175 -182 -436 -366 -695 -491 -191 -91 -161 -91 -337 -2 -314 157 -618
380 -768 561 -106 128 -185 291 -226 467 -15 64 -18 146 -21 604 l-4 530 88
52 c292 173 545 253 883 282 122 10 356 6 490 -9z m2669 -3065 c108 -26 188
-71 267 -149 110 -110 157 -221 156 -375 -1 -195 -106 -375 -270 -464 -244
-131 -550 -77 -712 125 -22 29 -38 58 -35 65 2 8 1 11 -5 8 -11 -7 -45 69 -65
146 -28 108 -14 229 40 344 109 232 373 359 624 300z m-3729 -36 c0 -23 -5
-28 -36 -33 -19 -4 -38 -14 -41 -21 -3 -8 7 -36 23 -62 24 -43 140 -221 151
-233 16 -17 203 241 203 280 0 14 -10 25 -32 35 -18 7 -36 11 -40 9 -5 -3 -8
6 -8 20 l0 26 160 0 160 0 0 -24 c0 -17 -8 -27 -28 -34 -44 -15 -88 -58 -164
-161 -39 -53 -91 -118 -116 -146 -84 -94 -87 -72 33 -249 61 -89 103 -161 99
-168 -4 -6 -3 -8 4 -4 6 4 23 -12 40 -37 41 -59 112 -122 155 -138 28 -10 37
-19 37 -36 l0 -23 -235 0 -235 0 0 24 c0 22 6 26 45 32 76 11 72 29 -45 208
l-102 155 -57 -72 c-83 -103 -161 -226 -161 -253 0 -19 8 -25 40 -34 33 -9 40
-15 40 -35 l0 -25 -180 0 -180 0 0 24 c0 21 8 27 49 39 71 21 113 58 199 176
42 58 103 138 135 178 69 85 77 55 -71 273 -140 206 -173 244 -227 267 -36 14
-45 23 -45 43 l0 25 215 0 215 0 0 -26z m-2102 -2 c1 -17 -8 -26 -43 -40 -32
-14 -46 -26 -54 -49 -15 -41 -15 -756 -1 -794 l10 -26 118 4 c123 5 160 16
203 61 29 30 66 105 74 150 7 35 9 37 44 37 l38 0 -13 -87 c-7 -49 -16 -113
-19 -143 -3 -30 -7 -64 -10 -75 -2 -11 -4 -23 -4 -27 -1 -5 -173 -8 -384 -8
l-383 0 2 27 c0 19 7 27 23 30 12 2 32 8 43 14 43 23 46 53 47 444 1 335 0
373 -16 405 -14 26 -27 37 -55 43 -21 5 -38 12 -39 15 0 4 -2 15 -4 25 -3 16
12 17 209 17 l212 0 2 -23z m902 -1 c0 -17 -8 -25 -31 -32 -18 -5 -41 -22 -53
-37 -20 -28 -21 -39 -21 -345 l0 -317 27 -57 c52 -111 184 -153 338 -106 89
27 145 111 158 235 11 110 -1 577 -15 595 -7 8 -30 20 -51 26 -34 11 -39 15
-34 37 l4 25 155 0 154 0 -3 -27 c-2 -22 -10 -29 -36 -34 -18 -4 -42 -15 -52
-24 -19 -17 -20 -33 -20 -287 0 -148 -5 -301 -11 -341 -21 -135 -83 -233 -179
-282 -193 -98 -482 -54 -578 87 -66 98 -66 100 -72 476 -5 329 -6 344 -25 358
-11 9 -32 18 -47 21 -21 4 -28 11 -28 29 l0 24 210 0 210 0 0 -24z m2373 1
c-3 -15 -19 -30 -46 -43 -68 -31 -68 -31 -64 -379 2 -290 4 -313 24 -356 43
-93 128 -140 247 -135 49 2 81 11 129 34 57 28 67 38 93 89 l29 58 3 305 c4
339 -1 376 -46 386 -58 13 -62 15 -60 40 l2 24 157 0 c144 0 157 -1 154 -17
-2 -10 -4 -24 -4 -30 -1 -7 -8 -13 -16 -13 -25 0 -72 -28 -81 -47 -4 -10 -10
-164 -14 -343 -5 -305 -7 -328 -28 -381 -62 -156 -251 -242 -462 -211 -172 25
-260 92 -311 238 -19 54 -21 85 -24 369 -2 177 -8 321 -14 337 -10 25 -17 30
-71 42 -18 4 -25 12 -26 31 l-2 25 218 0 217 0 -4 -23z m1432 2 c85 -26 144
-81 170 -159 44 -132 -19 -272 -152 -339 -24 -12 -43 -24 -43 -27 0 -17 214
-325 251 -362 23 -23 60 -47 81 -54 33 -10 38 -15 38 -41 l0 -30 -107 5 c-121
5 -169 21 -222 71 -40 39 -95 118 -146 212 -21 39 -49 87 -62 107 -13 21 -23
42 -23 48 0 7 -21 10 -55 8 l-55 -3 0 -151 c0 -188 7 -210 66 -225 37 -10 44
-15 44 -35 l0 -24 -215 0 -215 0 0 29 c0 26 4 30 32 33 20 2 38 13 52 31 20
28 21 38 21 422 l0 393 -23 25 c-13 14 -37 27 -53 31 -23 4 -29 11 -29 31 l0
25 289 0 c264 0 295 -2 356 -21z"/>
<path d="M5060 7561 l-53 -50 35 -39 c19 -21 45 -57 58 -80 l23 -41 34 57 c19
31 44 68 56 81 l22 23 -55 49 c-30 27 -58 49 -61 49 -3 0 -30 -22 -59 -49z"/>
<path d="M4583 7506 c-222 -72 -328 -317 -229 -527 45 -93 154 -189 217 -189
33 0 77 31 94 67 15 32 15 33 -15 60 -36 33 -43 67 -22 110 26 55 97 67 137
23 24 -26 30 -91 12 -126 -18 -36 -13 -50 24 -70 52 -26 122 -2 177 61 48 53
63 90 69 164 9 114 -30 218 -117 314 -95 104 -236 149 -347 113z"/>
<path d="M5479 7502 c-156 -52 -274 -202 -286 -363 -3 -42 0 -92 6 -115 26
-95 117 -184 189 -184 18 0 42 10 58 23 l26 23 -17 50 c-17 47 -17 51 -1 85
30 63 90 76 137 30 40 -41 40 -91 -1 -133 -22 -22 -28 -36 -24 -53 8 -34 46
-65 86 -71 102 -17 241 136 269 295 46 257 -205 491 -442 413z"/>
<path d="M3897 7176 c-71 -26 -139 -88 -169 -155 -65 -144 43 -412 181 -451
32 -9 76 11 92 42 10 19 8 25 -13 42 -30 25 -48 57 -48 85 0 24 48 79 70 82
40 4 63 -3 86 -28 22 -24 25 -35 21 -76 -2 -28 1 -54 8 -64 18 -25 119 -29
190 -8 57 16 105 41 105 54 0 3 -19 20 -41 36 -91 67 -181 222 -202 345 l-12
75 -50 17 c-60 20 -166 22 -218 4z"/>
<path d="M6130 7174 c-58 -21 -58 -20 -66 -79 -16 -122 -81 -241 -185 -340
l-61 -59 22 -18 c54 -44 238 -64 272 -30 6 6 10 32 10 57 -3 73 27 114 84 115
40 0 81 -32 89 -69 8 -36 -16 -87 -45 -96 -11 -3 -20 -12 -20 -19 0 -17 45
-66 62 -67 55 -5 105 25 153 93 85 118 114 276 67 365 -29 55 -83 107 -141
135 -60 29 -176 35 -241 12z"/>
<path d="M4990 6450 c-172 -14 -222 -20 -324 -41 -144 -29 -290 -80 -449 -156
l-137 -67 1 -455 c1 -500 6 -556 58 -711 50 -148 102 -231 216 -346 141 -142
290 -255 503 -383 137 -81 236 -131 263 -131 67 0 486 261 669 418 147 125
215 211 279 354 79 177 91 286 91 830 l0 423 -108 57 c-205 107 -401 167 -629
192 -187 20 -320 25 -433 16z m260 -299 c0 -37 -1 -39 -46 -51 -59 -17 -99
-51 -115 -98 -10 -28 -13 -163 -14 -552 0 -283 1 -526 3 -540 4 -25 5 -26 98
-28 179 -4 288 23 353 89 38 37 81 126 101 204 l12 50 50 -4 c47 -3 49 -4 44
-30 -3 -14 -8 -48 -11 -76 -4 -27 -8 -63 -10 -80 -2 -16 -9 -70 -15 -120 -6
-49 -13 -101 -15 -115 -2 -14 -4 -31 -4 -37 -1 -10 -117 -13 -546 -13 l-545 0
0 45 c0 39 3 45 21 45 75 0 139 47 159 118 6 23 10 222 10 530 0 435 -2 497
-16 525 -26 52 -42 64 -105 83 -57 17 -59 19 -59 51 l0 33 323 3 c177 1 323 3
325 5 1 1 2 -15 2 -37z"/>
<path d="M7825 3406 c-139 -65 -214 -232 -201 -446 11 -193 91 -347 212 -406
47 -23 63 -26 122 -22 147 11 243 100 286 265 22 82 21 271 0 344 -43 143
-125 251 -212 277 -65 20 -150 15 -207 -12z"/>
<path d="M2999 2663 c-13 -16 -12 -17 4 -4 16 13 21 21 13 21 -2 0 -10 -8 -17
-17z"/>
<path d="M6633 3413 c-10 -3 -13 -55 -13 -209 l0 -204 26 -6 c39 -10 118 2
162 25 75 38 108 108 100 211 -8 118 -74 179 -200 185 -35 2 -69 1 -75 -2z"/>
</g>
</svg>
